<svg width="1280" height="640" version="1.1" viewBox="0 0 338.67 169.33" xmlns="http://www.w3.org/2000/svg" xmlns:xlink="http://www.w3.org/1999/xlink">
 <g transform="translate(0 -127.67)">
  <path d="m233.89 279.8c8.823-8.6735 44.765-26.231 47.613-12.358 2.0312 9.8959 9.7119 9.9833 13.771 7.5952 9.3346-5.4924-3.5293-23.759 3.9687-33.073 11.057-13.735 31.707 3.8211 17.527 16.998-10.693 9.9358-20.955-10.674-6.4402-17.271 8.4096-3.8221 17.244-8.2331 11.98-16.108-4.5194-6.7616-21.812 1.0622-13.953-22.464" fill="none" stroke="#000" stroke-width="2.865"/>
  <g transform="translate(-10.583)" stroke-width=".67232">
   <g transform="matrix(1.4872 0 0 1.4876 606.12 24.321)">
    <path d="m-287.09 178.15c-0.12163-0.0661-0.26144-0.22651-0.31067-0.35645-0.054-0.14253-0.10867-1.5462-0.13777-3.5382-0.0265-1.8161-0.12355-5.4356-0.2156-8.0433-0.56467-15.998-0.38857-24.937 0.67803-34.417 0.99943-8.8833 2.98-17.6 5.5914-24.61 0.2285-0.61334 0.41545-1.132 0.41545-1.1525 0-0.0206-0.2594-0.23026-0.57644-0.46601-2.4593-1.8288-4.0844-5.282-3.7481-7.9645 0.29886-2.3835 1.6982-4.015 3.8327-4.4687 0.76481-0.16258 2.4887-0.11131 3.2435 0.0965 1.2668 0.34871 2.9338 1.3753 3.817 2.3505 0.22077 0.24379 0.68538 0.82426 1.0325 1.2899 0.34709 0.46567 0.66027 0.85787 0.69597 0.87155 0.0357 0.0137 0.268-0.0949 0.51623-0.24123 1.7687-1.0429 4.1944-2.0682 7.104-3.0031 6.7773-2.1774 10.051-3.6476 12.904-5.7955 0.48877-0.36797 0.96424-0.70948 1.0566-0.75891 0.40691-0.21777 0.87457-0.0157 1.0753 0.4647 0.10205 0.24424 0.0968 0.35466-0.043 0.8991-0.0877 0.34137-0.29694 0.92179-0.46506 1.2898-0.16812 0.36805-0.29505 0.6798-0.28205 0.69279 0.0412 0.0412 1.9352-0.6054 2.8149-0.96109 2.5936-1.0486 4.5367-2.1704 5.7428-3.3152 0.43063-0.40877 0.5369-0.46845 0.83417-0.46845 0.45638 0 0.83134 0.39283 0.83134 0.87094 0 0.89642-0.41496 2.2888-0.97496 3.2715-0.2087 0.36623-0.36706 0.67828-0.3519 0.69343 0.0474 0.0474 1.4157-0.14115 2.3005-0.31707 0.46566-0.0926 1.8373-0.43318 3.048-0.75688 1.2107-0.3237 2.3156-0.61085 2.4553-0.63811 0.32472-0.0634 0.80026 0.24301 0.91501 0.5895 0.10197 0.30789-0.0889 0.96872-0.49722 1.7216l-0.28642 0.5281 0.23065 0.0544c3.3344 0.7862 5.3234 1.4972 8.1555 2.9153 1.4102 0.70616 2.8359 1.5225 3.8612 2.2108 0.3355 0.22526 0.64666 0.40957 0.69147 0.40957 0.0448 0 0.33521-0.32497 0.64535-0.72214 1.4587-1.8681 2.9626-2.9749 4.6784-3.4432 0.52002-0.14194 0.90189-0.17945 1.8414-0.18085 1.0568-2e-3 1.2588 0.0225 1.8627 0.22193 2.9268 0.96662 4.2244 4.0575 3.116 7.4218-0.46249 1.4038-1.6029 3.3788-2.8122 4.8704-0.28349 0.34966-0.51544 0.67955-0.51544 0.7331 0 0.0535 0.16946 0.58446 0.37657 1.1798 2.0597 5.9204 3.4541 13.156 4.4045 22.854 0.50887 5.193 0.6259 7.8205 0.72219 16.214 0.0427 3.7253 0.12175 8.6212 0.17558 10.88 0.20067 8.42-0.0381 19.154-0.44044 19.798-0.10165 0.16277-0.52286 0.35257-0.78242 0.35257-0.51355 0-0.88784-0.50988-0.91474-1.2461l-0.0148-0.40489-0.0324 0.35984-0.0324 0.35983h-27.695l-41.754-2.6e-4c-6.4142 0-7.1647 0.0137-7.1647 0.1312 0 0.33023-0.24817 0.60922-0.62668 0.70453-0.49114 0.12368-0.71948 0.11645-0.99146-0.0314z" fill="#bee2e1" stroke-width=".056923"/>
    <path d="m-247.11 150.71c-1.3482 1e-5 -2.706 0.0544-3.4365 0.1633-5.2481 0.7828-9.5411 2.8698-13.125 6.381-4.656 4.5612-7.2778 10.949-7.6285 18.588-0.0438 0.95327-0.0317 1.2763 0.0506 1.3756l7.0368 0.0982c0.0194-0.0175 7.8264-0.0559 17.349-0.0853 9.5229-0.0293 18.2-0.0778 19.282-0.10748l1.9668-0.0538 0.0475-0.26303c0.11985-0.66009-0.26086-2.5778-1.1539-5.8084-0.27676-1.0012-0.65426-2.5762-0.83871-3.5-0.54731-2.7413-1.0967-4.3997-2.1244-6.4156-0.6564-1.2875-2.1271-3.5041-3.0556-4.6049-2.4752-2.9344-6.2478-4.8577-10.991-5.6038-0.69237-0.10893-2.0309-0.16332-3.3791-0.1633z" fill="#d9efee"/>
    <path d="m-250.49 136.23c0.0736 0.77988 4e-3 1.6078 0.36452 2.3292 0.15271 0.41369-0.12012 0.94325 0.25603 1.2724 0.3289 0.41327 0.44749 0.98911 0.92352 1.2823 0.83225 0.60672 1.9154 0.66433 2.9081 0.62706 0.60021-0.0584 1.2608-0.13828 1.7324-0.55001 0.20862-0.27997 0.22616-0.66815 0.53233-0.88694 0.75861-0.98503 0.8929-2.2732 0.96146-3.4751 0.0243-0.50791 0.0275-1.0165 0.0276-1.5249-1.6467-0.0877-3.2482-0.66153-4.9072-0.55998-0.80249 0.0486-1.5921 0.37752-2.1492 0.96522-0.21816 0.17442-0.53563 0.23355-0.6496 0.5208z" fill="#fff"/>
    <path d="m-287.05 178.18c-0.0994-0.0481-0.22218-0.16939-0.27276-0.26943-0.0579-0.11451-0.12491-1.609-0.18093-4.0342-0.0489-2.1188-0.14398-5.3954-0.21122-7.2813-0.26338-7.3878-0.31751-10.748-0.27257-16.92 0.0438-6.0155 0.0818-7.2218 0.35799-11.359 0.59295-8.8826 1.97-17.216 4.0706-24.635 0.56066-1.98 1.7899-5.7356 2.2444-6.8569l0.32779-0.80881-0.18755-0.127c-2.0618-1.3962-3.632-3.7614-4.094-6.1669-0.15345-0.79902-0.1501-2.0115 8e-3 -2.7654 0.30806-1.4724 1.3203-2.8342 2.5104-3.3777 0.92236-0.42116 1.4159-0.51774 2.612-0.51114 1.4805 0.0082 2.4183 0.26825 3.7659 1.0444 0.77463 0.44615 2.218 1.8231 2.8392 2.7085 0.20891 0.29776 0.4637 0.64066 0.56618 0.762l0.18634 0.22061 0.364-0.19807c2.6958-1.4669 4.4185-2.1833 7.8993-3.2849 5.9542-1.8844 9.4932-3.5003 12.319-5.6249 0.53552-0.40264 1.0544-0.75742 1.153-0.78842 0.42528-0.13366 0.96406 0.308 0.96303 0.78942-8.5e-4 0.38857-0.24475 1.1863-0.59515 1.9465-0.15231 0.33045-0.25442 0.62333-0.2269 0.65084 0.0676 0.06765 1.7387-0.49432 2.9546-0.9936 2.359-0.96871 4.3662-2.1153 5.4072-3.0889 0.57519-0.53791 0.7127-0.62638 0.97359-0.62638 0.39716 0 0.59906 0.11532 0.76553 0.43725 0.3171 0.61319-0.26839 2.7341-1.1229 4.0678-0.0808 0.12618-0.1184 0.258-0.0835 0.29294 0.0983 0.09826 2.0867-0.21334 3.3582-0.52627 0.62865-0.15471 1.8476-0.4743 2.7088-0.71019 1.8312-0.50158 2.0853-0.52234 2.4108-0.19688 0.20713 0.20713 0.22806 0.27967 0.19516 0.67646-0.0247 0.29747-0.15604 0.68496-0.39722 1.1717-0.1982 0.39998-0.34749 0.73721-0.33177 0.74941 0.0157 0.0122 0.35243 0.09025 0.74825 0.17346 3.5634 0.74906 8.1454 2.7516 11.593 5.0665 0.61707 0.41437 0.63081 0.41892 0.762 0.25237 0.0735-0.09328 0.3747-0.47786 0.66939-0.85462 1.8131-2.3181 3.8448-3.4196 6.3222-3.4277 1.607-0.0053 2.8184 0.45038 3.7906 1.4256 2.5543 2.5624 1.9662 6.5282-1.6394 11.054l-0.58063 0.72881 0.37812 1.0722c2.0498 5.8124 3.4402 12.962 4.4389 22.828 0.45199 4.4646 0.5815 6.971 0.6781 13.123 0.045 2.8638 0.13094 7.7026 0.19104 10.753 0.19734 10.014 0.12157 18.497-0.19661 22.01-0.0984 1.0869-0.14494 1.2179-0.49675 1.3998-0.31021 0.16042-0.5373 0.16173-0.84064 5e-3 -0.41801-0.21617-0.46299-0.47243-0.35354-2.0144 0.26872-3.7855 0.34559-12.347 0.17162-19.114-0.0461-1.7928-0.11874-6.5553-0.16146-10.583-0.0758-7.1468-0.12181-8.5832-0.38653-12.065-0.66267-8.7161-2.2661-17.262-4.8355-25.772-0.30086-0.99649-0.59906-1.9109-0.66269-2.032-0.0636-0.12114-0.55087-0.71553-1.0828-1.3209-3.6359-4.1381-9.1956-7.9-14.541-9.8389-1.7652-0.64032-4.0206-1.203-5.7076-1.4241-0.72256-0.09467-1.0994-0.68597-0.79791-1.2521 0.0542-0.10171 0.25419-0.32625 0.4445-0.49896 0.19031-0.17272 0.30185-0.31559 0.24787-0.3175-0.054-0.0019-0.75883 0.16538-1.5663 0.37176-2.3647 0.60436-3.7388 0.82886-5.9877 0.97821-1.4756 0.09801-1.9244 0.03595-2.0028-0.27698-0.0514-0.20518 0.13384-0.80553 0.33891-1.0983 0.33141-0.47315 0.0481-0.5217-0.66705-0.11434-0.46923 0.26726-0.48914 0.29106-0.31944 0.38188 0.26924 0.1441 0.37962 0.39526 0.26654 0.60654-0.0878 0.16403-0.6001 0.43516-1.1115 0.58823-0.27472 0.08223-0.53705-0.07692-0.61074-0.37053l-0.0512-0.20401-0.8263 0.25326c-0.45447 0.13929-0.87575 0.26781-0.93619 0.2856-0.0758 0.02231-0.0936 0.11892-0.0575 0.31128 0.0579 0.30871-0.019 0.40586-0.57061 0.72023-1.0874 0.61977-2.6017 1.1038-3.5693 1.1408-0.6519 0.02496-0.87416-0.11235-0.78123-0.48261 0.0658-0.26201 0.33797-0.38517 0.85132-0.38517 0.63156 0 2.6391-0.6743 2.8046-0.942 0.0677-0.10949 0.0553-0.10637-1.2536 0.31491-0.8297 0.26705-1.4165 0.40366-1.8728 0.436-0.73835 0.05233-0.81359 0.0104-0.81587-0.45471-2e-3 -0.46333-0.16817-0.50771-0.91198-0.24398-0.8334 0.2955-1.592 0.67751-3.3295 1.6767-1.8883 1.0859-2.1484 1.2091-4.1418 1.9624-2.3096 0.87281-2.9923 1.159-4.1487 1.7394-2.2926 1.1506-3.8947 2.5156-3.8947 3.3182 0 0.2677 0.19227 0.40881 1.7748 1.3025l0.88577 0.50021-0.35957 0.0262c-0.19777 0.0144-0.75944-0.0332-1.2482-0.10583-2.3179-0.34436-3.8652-0.0462-6.4195 1.2371-1.603 0.80535-2.4799 1.1731-2.6506 1.1117-0.26426-0.0951-0.7516 1.0479-1.7538 4.1132-2.7125 8.2966-4.3728 17.395-5.0847 27.865-0.26776 3.9376-0.31356 5.359-0.35888 11.138-0.046 5.8681 9e-3 9.254 0.27169 16.633 0.0671 1.886 0.16442 5.1435 0.21633 7.239 0.0519 2.0955 0.12911 3.8462 0.17154 3.8904 0.12561 0.13095 0.0882 0.43381-0.071 0.57536-0.16151 0.14356-0.72485 0.32006-0.99484 0.31167-0.0931-3e-3 -0.25069-0.0447-0.35013-0.0928zm74.884-74.477c0.50787-0.50787 1.5094-2.6849 1.7119-3.7211 0.16676-0.8534 0.0715-1.9882-0.21845-2.6014-0.78401-1.6582-2.5433-2.3131-4.7383-1.7637-0.9099 0.22774-1.0743 0.36912-1.5273 1.3136-0.33693 0.70249-0.41038 0.94381-0.44327 1.4562-0.0288 0.44831-5e-3 0.68116 0.0897 0.86238 0.19042 0.36615 0.51242 0.63409 0.78596 0.65401 0.22371 0.01629 0.27411-0.04371 0.69571-0.82832 0.77019-1.4333 1.2075-1.8351 1.6685-1.533 0.37891 0.24827 0.36237 0.50396-0.0735 1.1362-0.41319 0.59927-0.46321 0.80211-0.26305 1.0666 0.29348 0.38788 0.55041 0.47132 1.453 0.47191 0.83554 5.1e-4 0.86715 8e-3 1.042 0.22973 0.12597 0.16015 0.16439 0.29401 0.12757 0.4445-0.0925 0.37793-0.25477 0.46398-0.94036 0.4986-0.63719 0.0322-0.64279 0.0345-0.76055 0.31635-0.15513 0.37128-0.1515 1.0809 7e-3 1.3876 0.14194 0.27446 0.5306 0.57769 0.87262 0.68079 0.33175 0.1 0.34133 0.0987 0.51079-0.0708zm-67.373-4.3874c-0.45485-0.51673-0.3765-0.6228 0.46002-0.6228 0.66435 0 0.71836-0.03756 0.71836-0.49956 0-0.35114 0.23183-1.0581 0.4293-1.3091 0.20397-0.2593 0.53355-0.29345 0.82977-0.08597 0.20547 0.14392 0.20383 0.1126 0.0549 1.048-0.0369 0.23197-5e-3 0.34231 0.14508 0.508 0.3839 0.42265 0.67297 0.59267 1.0077 0.59267 0.35732 0 0.56717-0.15612 0.79059-0.58816 0.17059-0.32988 0.0956-0.48532-0.66196-1.3715-1.3512-1.5807-2.9721-2.3527-4.7166-2.2463-1.151 0.07019-2.1075 0.49129-2.3997 1.0565-0.10129 0.1959-0.10068 0.33103 4e-3 0.94812 0.15613 0.91801 0.48889 1.6319 0.99083 2.1257 0.37335 0.36728 0.4297 0.39291 0.96633 0.43957 0.31343 0.02725 0.79847 0.12416 1.0779 0.21536 0.2794 0.0912 0.53981 0.16962 0.5787 0.17427 0.0389 0.0046-0.0851-0.16848-0.27541-0.38474zm31.447 43.325c-0.76674-0.1957-0.98968-0.28891-1.4522-0.6071-0.52772-0.36308-1.0658-1.1286-1.3444-1.9127-0.49841-1.4029-0.79417-1.7607-1.7019-2.0592-1.1514-0.37866-1.3845-0.57179-2.2-1.8228-0.61637-0.94558-0.80506-1.4588-0.85751-2.3324-0.0761-1.2674 0.25171-2.4835 1.0249-3.802 0.41163-0.70198 1.2901-1.6988 1.8222-2.0674l0.34396-0.23837-0.0508-0.48606c-0.16363-1.5656 1.3359-2.8616 3.8664-3.3416 1.2746-0.24179 3.0247-0.13342 4.2748 0.26472 1.521 0.48443 2.3713 1.3373 2.4752 2.4825 0.041 0.45208 0.0673 0.50559 0.29546 0.60008 1.5181 0.62882 3.118 2.5746 3.5761 4.3491 0.16159 0.62594 0.1691 1.9218 0.0141 2.4367-0.11118 0.36944-0.775 1.6117-1.2249 2.2922-0.24351 0.36836-0.69676 0.6592-1.4094 0.90437-0.27124 0.0933-0.61445 0.26218-0.76267 0.37523-0.36463 0.27811-0.8282 1.1903-1.1003 2.1652-0.44931 1.6096-1.0806 2.2985-2.5242 2.7546-0.82742 0.26143-2.1412 0.28071-3.0648 0.045zm0.87207-1.8005c0.21845-0.21845 0.0419-3.3574-0.20354-3.619-0.0993-0.10582-0.14446-0.0945-0.33635 0.0847-0.53586 0.50019-0.81728 1.6203-0.651 2.591 0.12535 0.73177 0.29093 0.89633 1.0427 1.0362 0.0256 5e-3 0.0923-0.0371 0.14817-0.0929zm2.3018-0.22188c0.39688-0.19114 0.63962-0.58148 0.79993-1.2863 0.15788-0.69416 0.29833-1.9481 0.30038-2.6819l1e-3 -0.52398-0.3864-0.058c-0.28785-0.0432-0.47282-0.019-0.72521 0.0948-0.42284 0.19068-1.1416 0.96523-1.2178 1.3124-0.0315 0.14325-0.0116 0.79282 0.0442 1.4435s0.0766 1.3155 0.0462 1.4774-0.0298 0.33543 1e-3 0.38566c0.0743 0.12022 0.74808 0.0231 1.136-0.1637zm4.4187-5.9919c0.35353-0.18282 0.72404-0.74342 0.83061-1.2568 0.2911-1.4022-0.97091-3.566-2.5496-4.3714l-0.31882-0.16265-0.66076 0.65557c-0.74229 0.73647-1.6496 1.2953-2.4317 1.4977-0.27556 0.0713-0.92326 0.17074-1.4393 0.22095-1.8627 0.18122-2.627 0.47808-3.2063 1.2452-0.45932 0.60835-0.47951 0.99204-0.0651 1.2371 0.26078 0.15419 0.49812 0.17898 2.2437 0.23436 2.1511 0.0683 3.533 0.21746 4.6226 0.49908 1.6651 0.43038 2.4308 0.48207 2.9747 0.2008zm-3.8548-38.714c-0.18875-0.20856-0.15392-0.51615 0.0722-0.63797 0.0931-0.05017 0.30473-0.17788 0.47021-0.28381 0.38763-0.24813 0.55122-0.24296 0.72542 0.0229 0.17443 0.26622 0.0749 0.4982-0.33416 0.77846-0.41172 0.28212-0.74813 0.32551-0.93372 0.12043zm-4.5713-0.67656c-0.28288-0.31258-0.10705-0.58831 0.49488-0.77606 0.18626-0.0581 0.45746-0.17722 0.60266-0.2647 0.48204-0.29045 0.83303-0.14542 0.77929 0.32202-0.023 0.20004-0.12464 0.2873-0.647 0.55545-0.68573 0.35202-1.019 0.39627-1.2298 0.16329zm8.4282-0.6241c-0.0559-0.05588-0.1016-0.2039-0.1016-0.32893 0-0.26911 0.24349-0.45335 0.79358-0.60048 0.4517-0.12081 0.64575-0.01454 0.64575 0.35368 0 0.27364-0.08 0.34561-0.5955 0.53575-0.45581 0.16813-0.60599 0.17622-0.74223 0.03998z" fill="#a6c4c3" stroke-width=".056923"/>
    <g>
     <path d="m-247.37 134.73c-0.94652 0.0393-1.8859 0.33459-2.5632 1.0216-0.20203 0.13921-0.43603 0.25913-0.56017 0.48162-0.22892 1.5026-0.35338 3.347 0.92397 4.4395 1.2923 1.1406 3.2749 1.4129 4.8483 0.74983 0.83958-0.59406 1.245-1.6189 1.6159-2.5404 0.32625-1.1125 0.30552-2.2838 0.30231-3.4318-1.1576-0.45524-2.4342-0.37248-3.6277-0.67903-0.3077-0.0388-0.62397-0.0544-0.93948-0.0413zm2.9688 1.3188c0.0618 2e-3 0.12751 9e-3 0.19947 0.0196l0.38654 0.0579-1e-3 0.524c-2e-3 0.73376-0.14236 1.9878-0.30024 2.682-0.16031 0.70482-0.40307 1.0951-0.79995 1.2862h-1e-3c-0.3879 0.18681-1.0615 0.28351-1.1358 0.1633-0.0308-0.0502-0.0314-0.22363-1e-3 -0.38551s0.01-0.82676-0.046-1.4774c-0.0558-0.65067-0.0759-1.3001-0.0444-1.4433 0.0763-0.34719 0.79517-1.1219 1.218-1.3126 0.1893-0.0854 0.34026-0.12029 0.52555-0.1142zm-3.1543 1.1079c0.0477-0.012 0.0837 0.0117 0.13333 0.0646 0.24543 0.26155 0.42205 3.4004 0.2036 3.6189-0.0559 0.0558-0.12219 0.098-0.14779 0.093-0.7518-0.13992-0.91748-0.30434-1.0428-1.0361-0.16628-0.97073 0.11527-2.0909 0.65112-2.5911 0.0959-0.0896 0.15488-0.13734 0.20257-0.14934z" fill="#b9b9b9"/>
     <g stroke-width=".056923">
      <path d="m-242.47 127.97c-0.72577 6e-3 -1.4728 0.33819-2.112 0.7705-1.4412 0.99731-3.2394 1.3651-4.9733 1.2847-1.3201-0.13934-1.6146 1.592-2.4303 2.3089l-0.0279 0.24598c-0.4359 0.88396-0.3788 2.189 0.60617 2.682 2.4687 0.43829 5.0528-0.45183 7.4585 0.44545 1.1966 0.0255 2.4348 0.028 3.5977-0.24959 1.5068-0.74679 1.8517-2.8014 1.1612-4.2287-0.30641-0.97218-1.0264-1.7965-1.6862-2.573-0.47772-0.49768-1.0292-0.69074-1.5937-0.68626z" fill="#ccbdac"/>
      <path d="m-248.24 142.42c-1.8378-0.4455-2.7334-1.7809-2.9069-4.3345l-0.059-0.86783h-0.60631c-1.8676 0-3.2057-0.98415-3.6482-2.6834-0.31847-1.2227 0.058-2.9318 0.98872-4.4886 0.32844-0.54938 1.3647-1.6841 1.8077-1.9795 0.30368-0.20247 0.30591-0.2083 0.25638-0.66991-0.0819-0.76317 0.1232-1.287 0.74471-1.9021 1.4443-1.4294 4.3329-1.9364 6.9812-1.2254 0.73427 0.19715 1.5056 0.57192 1.9126 0.9293 0.40032 0.3515 0.72869 1.0333 0.73032 1.5163 6.8e-4 0.21205 0.0293 0.42682 0.0635 0.47727 0.0342 0.0504 0.29756 0.21621 0.58523 0.36835 1.5066 0.79684 2.8246 2.4698 3.247 4.1212 0.40282 1.575 0.0442 3.0629-0.96164 3.9901-0.68069 0.62744-1.5224 0.91086-2.54 0.85521l-0.52243-0.0286-0.0994 1.1503c-0.23446 2.7142-0.87702 4.0674-2.1592 4.5472-0.88611 0.33153-2.8871 0.44933-3.8144 0.22455zm1.1512-1.6675c0.0894-0.33345 0.0559-1.3414-0.0823-2.4765-0.24842-2.0408-0.2664-2.166-0.3186-2.2182-0.0629-0.0629-1.1547 0.24673-1.7111 0.48522l-0.40018 0.17154 0.0556 1.04c0.0974 1.8218 0.3775 2.4948 1.2192 2.9292 0.62118 0.32065 1.1618 0.35066 1.2373 0.0687zm1.7675 0.0655c0.50659-0.0688 0.83441-0.33911 1.067-0.87975 0.33257-0.77307 0.64752-3.6141 0.42079-3.7957-0.16839-0.1349-1.1435-0.27953-1.8846-0.27953h-0.65849l0.0577 0.9525c0.0317 0.52387 0.0927 1.2763 0.13555 1.6722 0.0428 0.39582 0.0782 1.0848 0.0786 1.531 7.6e-4 0.84771 0.0292 0.94957 0.24857 0.89001 0.0732-0.0199 0.31392-0.0607 0.53489-0.0907zm4.7564-6.0708c1.5149-0.77662 1.2936-3.1416-0.45824-4.898-0.34975-0.35065-0.83972-0.74561-1.0888-0.8777l-0.45291-0.24015-0.52076 0.54535c-1.2011 1.2578-2.2693 1.7169-4.2755 1.8373-1.6343 0.0981-2.4461 0.40602-3.0034 1.1393-0.71256 0.93752-0.59993 1.5351 0.32998 1.7508 0.18267 0.0424 1.0941 0.0783 2.0254 0.0799 1.9035 3e-3 3.4628 0.14999 4.5297 0.42635 1.5969 0.41364 2.4366 0.48192 2.9145 0.23695z" fill="#958b7f"/>
      <path d="m-252.04 127.88 2e-3 -0.68766c2e-3 -0.82667 0.0417-0.96187 0.66423-1.5441 1.3313-0.99026 3.7342-1.5602 5.7398-1.1958 2.4068 0.43731 3.1205 1.1882 3.4016 2.6538-5.7042 6.011-6.6355 2.9066-9.8076 0.77385z" fill="#595755"/>
      <path d="m-246.96 124.35c-1.7507-0.0128-3.3957 0.42514-4.3067 1.3219-0.54659 0.53804-0.7246 0.81979-0.6656 1.5555 0.0422 0.52534 0.49492 0.60289 0.28681 0.77411 5.3778 3.509 5.9904 2.3624 9.1571-0.44441l0.11524-0.67541c-3e-3 -1.491-1.1475-2.1725-3.8504-2.4877-0.23945-0.0279-0.48629-0.0421-0.73639-0.0439zm-0.0734 1.2004c1.309-0.0249 3.0777 0.46684 3.3874 1.0454 0.36338 0.67897-0.96891 2.2451-2.2278 2.619-0.45978 0.1365-0.53293 0.14022-0.99219 0.0501-0.72366-0.14202-1.832-0.97961-2.0795-1.572-0.37609-0.90011 0.0806-1.7433 1.1033-2.0376 0.22956-0.0661 0.50667-0.0992 0.80874-0.1049z" fill="#454342"/>
     </g>
    </g>
    <g fill="#1d1d1b" stroke="#1d1d1b">
     <path d="m-248.2 142.26c-1.8122-0.41453-2.6067-1.6442-2.7793-4.3015-0.0368-0.56735-0.0946-0.91358-0.15338-0.91922-0.0519-5e-3 -0.36098-3e-3 -0.68695 4e-3 -0.99378 0.0216-1.9027-0.30353-2.6275-0.93996-0.16085-0.14123-0.43556-0.54628-0.61047-0.90012-0.30971-0.62656-0.318-0.66775-0.31759-1.5792 5.1e-4 -1.1189 0.14275-1.7091 0.67768-2.8115 0.4634-0.95499 1.1881-1.8812 1.9404-2.4798l0.57015-0.45369-0.0571-0.4919c-0.14309-1.2329 0.68035-2.2042 2.3845-2.8127 1.33-0.47494 2.7992-0.59672 4.2307-0.35066 2.2548 0.38758 3.3444 1.2056 3.4754 2.6092l0.0495 0.53007 0.62132 0.31984c1.4536 0.74831 2.7851 2.4386 3.2064 4.0706 0.16604 0.6432 0.16725 1.7531 3e-3 2.3078-0.43454 1.4632-1.825 2.4117-3.3487 2.2842-0.30552-0.0256-0.59421-0.0207-0.64155 0.0108-0.0473 0.0315-0.13043 0.6131-0.18466 1.2925-0.19315 2.4198-0.73572 3.765-1.7249 4.2765-0.69626 0.36005-3.0579 0.5565-4.0264 0.33495zm1.1472-1.2544c0.15024-0.18103 0.20232-1.0802 0.11396-1.9677-0.34426-3.4579-0.29063-3.175-0.60189-3.175-0.28966 0-1.7316 0.46412-2.0257 0.65201-0.20056 0.12815-0.20177 0.13782-0.15454 1.2414 0.0694 1.6224 0.36416 2.5146 0.95953 2.9047 0.55506 0.36369 1.5296 0.56021 1.7086 0.34454zm2.2922-0.22654c0.67107-0.34235 1.0468-1.6183 1.0607-3.6026l8e-3 -1.1841-0.31526-0.10414c-0.53223-0.17581-2.1308-0.31286-2.3405-0.20065-0.22411 0.11994-0.2327 0.47195-0.0528 2.165 0.0693 0.65193 0.12601 1.6076 0.1261 2.1237 8e-5 0.51612 0.0287 0.96793 0.0636 1.004 0.11048 0.11419 1.101-0.0233 1.4498-0.2013zm-5.8892-5.3075c2.8209-1.0169 3.7956-1.2122 5.3392-1.0699 0.56452 0.052 1.5004 0.2113 2.0797 0.35393 1.9754 0.48633 2.5553 0.44419 3.234-0.23502 0.81899-0.81966 0.86504-1.8944 0.1445-3.3723-0.39812-0.81659-1.1148-1.6393-1.8638-2.1394-0.81797-0.54622-0.82869-0.54497-1.5342 0.17977-1.0655 1.0945-2.1129 1.585-3.5422 1.6586-1.4674 0.0757-2.8736-0.39528-4.0857-1.3683-0.67805-0.54433-0.65699-0.54717-1.4337 0.19359-1.5925 1.5188-2.3047 4.0197-1.4795 5.1958 0.41166 0.58677 1.2689 0.94282 2.0834 0.86533 0.24755-0.0236 0.7238-0.14148 1.0583-0.26208zm5.3256-6.4039c0.96703-0.47839 1.8443-1.5318 1.8443-2.2146 0-0.91764-2.5148-1.6414-4.572-1.3158-1.7407 0.27553-3.001 1.0457-2.8295 1.729 0.0765 0.30484 0.7894 1.0679 1.3376 1.4318 0.24779 0.16447 0.73246 0.39667 1.077 0.51599 0.54933 0.19022 0.74183 0.21416 1.5628 0.19438 0.89042-0.0215 0.9679-0.0382 1.5797-0.34084zm0.59121-1.3497c-0.0559-0.0559-0.1016-0.15302-0.1016-0.21587 0-0.23491-0.25975-0.60361-0.55289-0.78478-0.37767-0.23341-0.38474-0.53346-0.0136-0.57603 0.48258-0.0553 1.2904 1.0684 1.1086 1.5422-0.0615 0.16029-0.2963 0.17866-0.4405 0.0345z" stroke-width=".19161"/>
     <path d="m-286.98 178.13c0.0104-0.0349-0.0423-0.15875-0.11703-0.27517-0.11544-0.17987-0.14395-0.66921-0.18976-3.2567-0.0296-1.6748-0.12882-5.199-0.22038-7.8316-0.25705-7.3906-0.33778-11.05-0.3372-15.285 2e-3 -16.363 1.6636-28.946 5.3758-40.717 0.51329-1.6275 1.4025-4.14 1.6012-4.5242 0.14394-0.27834 0.11835-0.3237-0.35625-0.63139-0.57214-0.37092-1.6077-1.3938-2.1545-2.128-1.331-1.7874-2.0547-4.2797-1.7597-6.0607 0.32773-1.979 1.4472-3.4012 3.0819-3.9153 0.51232-0.16113 0.7935-0.1896 1.8728-0.1896 1.428 0 1.9532 0.1037 2.9795 0.58839 1.3673 0.6457 2.6134 1.7542 3.6968 3.2887 0.31917 0.45205 0.63527 0.82191 0.70244 0.82191 0.0672 0 0.41713-0.17015 0.77768-0.37811 1.9525-1.1262 3.9463-1.9431 7.8456-3.2146 6.3344-2.0655 9.3928-3.4907 12.377-5.7677 0.81827-0.62435 1.089-0.6865 1.3798-0.31678 0.14548 0.18494 0.16913 0.2946 0.12328 0.5715-0.0786 0.47452-0.49539 1.5978-0.76116 2.0513-0.23398 0.39926-0.22576 0.62041 0.023 0.61861 0.26659-0.0019 2.3148-0.72617 3.5798-1.2658 2.2745-0.97028 4.096-2.0393 5.1776-3.0386 0.61999-0.57282 0.87698-0.6465 1.184-0.33947 0.16371 0.16371 0.17621 0.2429 0.13095 0.82978-0.0807 1.046-0.56032 2.3908-1.17 3.2802-0.27901 0.40701-0.29564 0.49662-0.1057 0.5695 0.36075 0.13843 2.8295-0.31925 5.1971-0.96348 2.9836-0.81186 3.0001-0.81516 3.2498-0.65153 0.12037 0.07887 0.24239 0.23714 0.27114 0.3517 0.0701 0.27914-0.1808 1.0485-0.53207 1.6319-0.15727 0.26116-0.27479 0.53274-0.26116 0.6035 0.0175 0.09095 0.35967 0.20578 1.1674 0.39177 3.6778 0.84689 7.2347 2.3852 10.902 4.715 0.57152 0.36305 1.0919 0.66008 1.1564 0.66008 0.0645 0 0.3177-0.25718 0.56262-0.5715 1.2445-1.5971 2.1556-2.4269 3.343-3.0447 0.94181-0.48998 1.7573-0.70556 2.8822-0.76191 1.7574-0.08804 2.9519 0.33039 4.0135 1.4059 1.0356 1.0491 1.4392 2.0724 1.4381 3.6462-1e-3 2.1326-0.99642 4.3886-3.1195 7.073-0.33146 0.4191-0.60324 0.80762-0.60395 0.86337-8.5e-4 0.0558 0.20984 0.7225 0.46788 1.4817 2.0427 6.0097 3.3352 12.726 4.3062 22.378 0.52595 5.2275 0.6324 7.5406 0.73055 15.875 0.0447 3.7952 0.11804 8.3291 0.16299 10.075 0.10575 4.1078 0.10791 13.533 4e-3 16.087-0.16491 4.0412-0.29539 5.1646-0.59981 5.1646-0.0481 0-0.0639 0.0381-0.0352 0.0847 0.0317 0.0513-0.0885 0.0847-0.30545 0.0847-0.19678 0-0.33555-0.0222-0.30839-0.0494 0.0272-0.0272-0.0291-0.12783-0.1249-0.22369-0.19108-0.19107-0.19084-0.22485 0.0249-3.3676 0.14126-2.0582 0.19128-12.032 0.0832-16.595-0.0546-2.305-0.13291-7.4866-0.17406-11.515-0.0412-4.028-0.0959-7.5713-0.12176-7.874-0.0258-0.30269-0.0869-1.2742-0.13575-2.159-0.51747-9.3744-2.4216-19.766-5.2872-28.854-0.35368-1.1216-0.54332-1.4152-1.7943-2.7776-3.9541-4.3062-9.4655-7.919-14.962-9.8079-1.2504-0.42968-3.4434-0.97156-4.6223-1.1421-0.97785-0.14148-1.1853-0.27034-1.1853-0.73614 0-0.18915 0.11694-0.35908 0.508-0.73819 0.49983-0.48456 0.6394-0.77534 0.37214-0.77534-0.0747 0-0.69385 0.15115-1.3758 0.33589-2.7 0.7314-4.133 0.96104-6.0518 0.96988-1.3992 0.0064-1.4281 0.0029-1.5875-0.19332-0.31163-0.38361-0.22151-0.64556 0.43355-1.2601 0.64369-0.60387 1.3514-1.5856 1.3514-1.8746 0-0.09851-0.0212-0.17911-0.047-0.17911-0.0259 0-0.41004 0.21364-0.85371 0.47475-2.6817 1.5782-6.9428 3.1712-8.8581 3.3115-0.55753 0.04083-0.68275 0.02503-0.8255-0.10416-0.30516-0.27616-0.22147-0.64732 0.29738-1.3189 0.43768-0.56647 0.56449-0.8392 0.39022-0.8392-0.0415 0-0.43202 0.21192-0.86783 0.47092-1.1547 0.68626-3.2974 1.723-4.8987 2.3703-0.76835 0.31058-2.9782 1.0888-4.9107 1.7293-1.9325 0.64054-3.8756 1.3079-4.318 1.483-1.6708 0.6613-4.3631 2.0464-4.8707 2.5059-0.0944 0.08548-0.33273 0.24245-0.52953 0.34882-0.63819 0.34493-2.1093 1.5841-3.0979 2.6095-1.0689 1.1087-2.1051 2.3728-3.0511 3.7222-0.57719 0.82336-0.66726 1.0144-1.2199 2.5869-3.266 9.294-5.2008 19.852-5.8562 31.957-0.37374 6.9031-0.35433 13.327 0.0803 26.585 0.0908 2.7707 0.19126 6.2104 0.22318 7.6437 0.0319 1.4333 0.0907 2.6262 0.13057 2.6508 0.15438 0.0954 0.061 0.30184-0.18289 0.4044-0.14047 0.0591-0.22937 0.13343-0.19755 0.16524 0.0318 0.0318-0.11995 0.0579-0.33726 0.0579s-0.38664-0.0286-0.37628-0.0635zm74.597-73.702c1.0281-1.4205 1.6326-2.5594 2.022-3.8097 0.15321-0.49193 0.1916-0.8163 0.19293-1.6301 2e-3 -1.193-0.15862-1.7156-0.74993-2.441-0.78473-0.96266-1.6275-1.3383-3.0136-1.3432-1.7088-6e-3 -3.0047 0.56473-4.3478 1.9149-0.69419 0.69784-1.5788 1.8275-1.5788 2.016 0 0.07033 0.59466 0.60814 1.3215 1.1951 1.1182 0.90308 1.3462 1.054 1.4823 0.98116 0.28761-0.15392 0.78318-0.8664 1.3412-1.9283 0.77468-1.4741 1.1952-1.9211 1.5107-1.6056 0.16377 0.16377 0.11906 0.36125-0.16125 0.71226-0.3024 0.37864-1.0918 1.9089-1.0918 2.1164 0 0.11693 0.0579 0.12969 0.35983 0.0793 1.0119-0.16891 1.438-0.21231 2.0997-0.21387 0.71123-2e-3 0.9271 0.0695 0.9271 0.30552 0 0.23793-0.26753 0.37011-0.7491 0.37011-1.4216 0-3.6536 0.52971-3.6536 0.86709 0 0.0611 0.2708 0.3768 0.60179 0.70151 0.33099 0.32472 0.92402 0.95235 1.3178 1.3947 0.75118 0.84379 1.1533 1.1853 1.3957 1.1853 0.0867 0 0.39776-0.34905 0.77324-0.86783zm-66.949-0.36858c0.31284-0.40063 0.81125-1.0137 1.1076-1.3624 0.37916-0.44616 0.51837-0.67045 0.46989-0.75709-0.12141-0.21695-1.3105-1.065-1.847-1.3172-0.2855-0.13423-0.76175-0.28719-1.0583-0.3399-0.64605-0.11483-0.76753-0.19478-0.73402-0.48305 0.0246-0.2119 0.0431-0.21851 0.57578-0.20617 0.61485 0.01424 1.3727 0.26618 2.1071 0.70046 0.49995 0.29566 0.73723 0.28996 0.65548-0.0157-0.13845-0.51775-0.14957-1.7368-0.0213-2.3389 0.16913-0.79421 0.32533-1.0447 0.6296-1.0095 0.28616 0.03305 0.32808 0.25558 0.14805 0.78586-0.24176 0.71209-0.0948 3.164 0.20777 3.4666 0.10814 0.10813 0.10567 0.10987 1.1102-0.78181 0.43641-0.38737 1.0114-0.86362 1.2778-1.0583 0.2664-0.19471 0.48547-0.42093 0.48683-0.5027 4e-3 -0.22264-1.124-1.7541-1.7897-2.4304-1.3469-1.3685-2.5896-1.9161-4.3038-1.8966-1.4347 0.01632-2.297 0.41324-2.8909 1.3307-0.57243 0.88427-0.69548 1.3178-0.70048 2.4677-4e-3 0.81552 0.0338 1.149 0.18941 1.6898 0.49864 1.7336 1.6476 3.3992 3.091 4.4809 0.22476 0.16844 0.47877 0.30626 0.56447 0.30626 0.0952 0 0.37723-0.28354 0.72461-0.72842z" stroke-width=".26893"/>
    </g>
   </g>
   <g transform="matrix(1.4872 0 0 1.4876 262.69 24.321)">
    <g stroke-width=".67232">
     <path d="m-44.652 105.12c-0.2528-1e-3 -0.46469 0.0598-0.85214 0.12712-0.8476 0.14729-2.4806 0.67851-3.1915 1.0361-1.6245 0.81719-3.5436 2.5569-4.6545 4.2287-1.3919 2.0946-2.273 4.4544-2.7073 7.2657-0.19927 1.2905-0.19707 4.1226 0.0047 5.4266 0.59249 3.8215 2.0535 6.8668 4.5129 9.4222 3.05 3.169 6.6787 4.5552 10.89 4.1667h0.001058c2.9594-0.27306 6.3187-1.3268 8.847-2.774 4.4395-2.5411 7.0765-6.5413 7.8672-11.952 0.33984-2.3252 0.15905-6.4897-0.33693-8.2026-0.11856-0.40943-0.64467-1.0466-1.0253-1.2408 0.01455 7e-3 -0.09252-0.0411-0.23564-0.10077-0.14312-0.0597-0.3445-0.14265-0.59686-0.24598-0.50473-0.20666-1.2138-0.49462-2.0753-0.84336-1.7231-0.69746-4.0551-1.6369-6.58-2.6494-7.6511-3.0684-9.109-3.6614-9.8676-3.6644z" fill="#fefefe" stroke-width=".056923"/>
     <path d="m13.738 105.28c-0.79626-0.0362-2.1846 0.54078-9.9922 3.6737-2.5371 1.018-4.8769 1.9606-6.6027 2.6593-0.86288 0.34934-1.5724 0.63777-2.0758 0.84388-0.25174 0.10305-0.45193 0.18585-0.59376 0.24495s-0.25154 0.10906-0.22944 0.0977c-0.34432 0.17758-0.7176 0.58112-0.89504 0.98288-0.24504 0.55481-0.47374 2.0621-0.56689 3.6871s-0.06986 3.4016 0.10284 4.5956c0.32154 2.223 0.84605 3.9544 1.7224 5.6937 1.2293 2.4398 2.9438 4.3417 5.3309 5.9087 2.6933 1.768 6.3123 2.9764 10.004 3.3326 0.61155 0.059 2.5755-0.0485 3.3812-0.19378 2.0647-0.37234 3.9827-1.2604 5.7537-2.6701 0.69568-0.55379 2.2131-2.1325 2.7187-2.8267 1.7096-2.3472 2.7371-4.9063 3.2148-8.0186 0.19646-1.2803 0.19589-4.0424-0.0021-5.3433-0.31906-2.101-0.84287-3.7824-1.7286-5.5562-0.76293-1.528-1.4729-2.5191-2.6572-3.7088-1.7611-1.7692-3.5406-2.7342-5.9376-3.2215-0.43764-0.089-0.68181-0.16887-0.94723-0.18087z" fill="#fefefe" stroke-width=".056923"/>
     <g>
      <path d="m13.738 105.28c-0.07995-4e-3 -0.16832 4.9e-4 -0.26872 0.0124-3e-3 3.3e-4 -0.0058 1.8e-4 -0.0088 5.2e-4 -0.19072 0.0234-0.43458 0.0811-0.75086 0.17621-0.04838 0.0144-0.10097 0.031-0.15348 0.0476-0.15524 0.0491-0.31966 0.10279-0.51315 0.17053-0.0032 1e-3 -0.0051 2e-3 -0.0083 3e-3l0.83509 0.28319c2.877 0.97388 5.1603 2.5358 6.7045 4.5858 1.5322 2.034 2.63 4.4519 3.0799 6.7836 0.53044 2.7487 0.38939 5.1274-0.46147 7.7649-0.74675 2.3148-1.5148 3.5942-3.1269 5.2116-3.0949 3.105-6.6356 5.0492-10.163 5.5805-0.90136 0.1358-3.2514 0.24218-3.8407 0.12245 1.5593 0.48176 3.2122 0.81658 4.8798 0.97746 0.45867 0.0443 1.6779-5e-3 2.5988-0.094 0.30698-0.0296 0.58096-0.0634 0.78238-0.0997 2.0647-0.37234 3.9827-1.2604 5.7537-2.6701 0.69568-0.5538 2.2131-2.1325 2.7187-2.8267 0.32047-0.43998 0.61698-0.8875 0.89039-1.3446 7.4e-5 -1.3e-4 -7.7e-5 -3.9e-4 0-5.2e-4 0.18223-0.3047 0.3548-0.61361 0.51676-0.92759 7.1e-5 -1.4e-4 -7.2e-5 -3.8e-4 0-5.2e-4 0.89115-1.7277 1.4793-3.6057 1.8076-5.7454 0.17185-1.1201 0.19305-3.3747 0.06305-4.7925-1.6e-5 -1.9e-4 1.8e-5 -3.3e-4 0-5.1e-4 -0.01858-0.20253-0.04036-0.38775-0.06511-0.55036-0.03986-0.26246-0.08316-0.51859-0.12971-0.76894-2.9e-5 -1.7e-4 3.2e-5 -3.5e-4 0-5.2e-4 -0.04656-0.25035-0.09651-0.49511-0.15038-0.73536-3.7e-5 -1.6e-4 3.9e-5 -3.5e-4 0-5.1e-4 -0.16168-0.72104-0.35778-1.401-0.59634-2.0671-5.5e-5 -1.5e-4 5.3e-5 -3.7e-4 0-5.2e-4 -0.23864-0.66619-0.52-1.3181-0.85214-1.9833-0.76293-1.528-1.4729-2.5191-2.6572-3.7088-1.7611-1.7692-3.5406-2.7343-5.9376-3.2215-0.43764-0.089-0.6818-0.16888-0.94723-0.18088z" fill="#dcdcdc" stroke-width=".056923"/>
      <path d="m-43.808 103.35-0.0615 7e-3 -0.84698 0.0884c-4.9276 0.51277-8.8846 3.4199-11.208 8.2166-0.90354 1.8652-1.4315 3.6059-1.7632 5.8069-0.23314 1.5476-0.25755 4.1972-0.05064 5.688 0.58993 4.2509 2.286 7.8842 4.9888 10.666 2.711 2.7897 5.6707 4.2772 9.2857 4.6591h5.17e-4c0.0018 1.9e-4 0.0044 3.3e-4 0.0062 5.2e-4l0.0067 1e-3h0.0078c0.88181 0.0897 2.7975 0.0437 3.7806-0.0879 3.4223-0.45814 7.1551-1.8154 9.7529-3.5522 4.2599-2.8481 6.7784-6.9391 7.6218-12.363 0.25383-1.6321 0.27324-5.1061 0.04082-6.8435-0.20723-1.5492-0.37234-2.3234-0.6444-2.8603-0.294-0.58017-0.90562-1.2513-1.4361-1.5575-0.07801-0.045-0.13882-0.0662-0.2899-0.13074-0.15109-0.0645-0.36102-0.1526-0.62373-0.26148-0.52543-0.21776-1.262-0.51928-2.1565-0.88315-1.7889-0.72774-4.2088-1.7042-6.8285-2.7538zm56.569 0.1633-0.05581 0.0222-9.5818 3.8463c-2.6903 1.08-5.1275 2.0702-6.919 2.8086-0.89575 0.36924-1.6298 0.67564-2.1544 0.89916-0.26232 0.11177-0.47218 0.20236-0.62477 0.27079-0.0763 0.0342-0.13813 0.0629-0.18655 0.0863-0.04843 0.0234-0.0739 0.0331-0.12041 0.0651-0.7686 0.52881-1.3168 1.3211-1.5518 2.2386-0.082878 0.32355-0.21137 1.1255-0.30334 1.8505-1.0865 8.5687 1.6694 15.558 7.7256 19.478 2.8847 1.8673 6.8416 3.2268 10.384 3.5698 1.0308 0.0998 2.969 0.0376 3.9837-0.12764 3.0257-0.49272 5.5398-1.7945 7.9024-4.0855 1.8148-1.7599 3.0242-3.5079 4.0013-5.7852 1.0952-2.5524 1.5828-5.0306 1.5828-8.029 0-0.96291-0.04435-2.0709-0.108-2.5316-0.62615-4.53-2.3504-8.1889-5.1289-10.842-2.2735-2.1707-4.9753-3.3768-8.2341-3.6788h-5.18e-4zm-57.413 1.6102c0.30378 1e-3 0.71968 0.097 1.6005 0.40846 1.3188 0.46635 3.6798 1.4162 8.2672 3.2559 2.5248 1.0126 4.8569 1.952 6.58 2.6494 0.86153 0.34874 1.5706 0.6367 2.0753 0.84336 0.25236 0.10333 0.45374 0.18629 0.59686 0.24598 0.14312 0.0597 0.25019 0.10819 0.23564 0.10076 0.38059 0.19417 0.90671 0.83133 1.0253 1.2408 0.49598 1.7129 0.67676 5.8774 0.33693 8.2026-0.79074 5.4104-3.4277 9.4106-7.8672 11.952-2.5283 1.4472-5.8876 2.5009-8.847 2.774h-0.001033c-4.2116 0.38849-7.8403-0.99765-10.89-4.1667-2.4594-2.5554-3.9204-5.6007-4.5129-9.4222-0.20172-1.304-0.20397-4.1361-0.0047-5.4265 0.43432-2.8113 1.3154-5.1711 2.7073-7.2657 1.1109-1.6718 3.03-3.4115 4.6545-4.2287 0.71089-0.3576 2.3439-0.88883 3.1915-1.0361 0.38746-0.0673 0.59934-0.12809 0.85214-0.12712zm58.39 0.15865c0.26542 0.012 0.50958 0.0919 0.94723 0.18087 2.3971 0.48725 4.1765 1.4523 5.9376 3.2215 1.1844 1.1898 1.8943 2.1808 2.6572 3.7088 0.88571 1.7739 1.4095 3.4552 1.7286 5.5562 0.19796 1.3009 0.19852 4.0631 0.0021 5.3433-0.47766 3.1123-1.5052 5.6714-3.2148 8.0186-0.50563 0.69418-2.023 2.2729-2.7187 2.8267-1.771 1.4098-3.6889 2.2978-5.7537 2.6701-0.80567 0.14531-2.7696 0.25275-3.3812 0.19378-3.6918-0.35616-7.3107-1.5646-10.004-3.3326-2.3871-1.567-4.1017-3.4689-5.3309-5.9087-0.87632-1.7393-1.4008-3.4707-1.7224-5.6937-0.1727-1.194-0.19598-2.9706-0.10284-4.5956 0.09315-1.625 0.32185-3.1323 0.56689-3.6871 0.17744-0.40176 0.55072-0.8053 0.89504-0.98288-0.0221 0.0114 0.08761-0.0386 0.22944-0.0977 0.14184-0.0591 0.34202-0.1419 0.59376-0.24495 0.50349-0.20611 1.213-0.49454 2.0758-0.84388 1.7258-0.69868 4.0656-1.6412 6.6027-2.6593 7.8076-3.1329 9.1959-3.7098 9.9922-3.6737zm-15.268 8.663c-0.10042 1.9e-4 -0.20227 4e-3 -0.30644 0.0103-1.1767 0.0755-2.1345 0.68174-2.6143 1.6748-0.61409 1.2711-0.56145 2.7535 0.12506 4.2111 0.50873 1.0802 1.3136 1.8223 2.3094 2.0908 2.0333 0.54825 4.2781-0.96477 4.8519-3.2044 0.42572-1.6618-0.51137-3.3528-2.2872-4.2416-0.74474-0.37279-1.3744-0.54238-2.0784-0.54106zm-46.085 0.45837c-0.98556-2e-3 -1.7576 0.22416-2.5663 0.7519-1.4548 0.94943-2.1733 2.3111-1.9177 3.7414 0.28825 1.613 1.5278 3.0131 3.0629 3.4437 0.75754 0.2125 1.7522 0.14825 2.4123-0.17467 0.63983-0.31304 1.3094-1.0231 1.6691-1.7358 0.74793-1.482 0.82553-3.0723 0.18604-4.3775-0.31723-0.64748-0.77239-1.0812-1.4676-1.4051-0.41693-0.19421-0.68544-0.24291-1.3787-0.24392zm47.692 1.219c0.50586-4.3e-4 0.80538 0.30074 0.90382 0.67283 0.09844 0.37208-0.01357 0.79795-0.45165 1.065-0.19651 0.1198-0.61422 0.152-0.81184 0.0698-0.25718-0.10708-0.5137-0.46086-0.5457-0.79375-0.03063-0.3188 0.05321-0.56412 0.20671-0.73535 0.1535-0.17122 0.38394-0.27826 0.69866-0.27854zm-49.411 0.43098c0.48476-0.0248 0.95912 0.29638 0.95912 0.92708 0 0.37442-0.18999 0.69827-0.44855 0.83199-0.06862 0.0355-0.24236 0.0797-0.41186 0.0915-0.1695 0.0118-0.34579-9e-3 -0.41134-0.0326-0.03044-0.0111-0.15246-0.0903-0.25683-0.19327-0.10437-0.10293-0.20348-0.2313-0.25063-0.32194-0.12231-0.23503-0.10954-0.56923 0.04186-0.81752 0.20056-0.32895 0.48748-0.47037 0.77825-0.48525z" fill="#1d1d1b"/>
      <path d="m-44.804 105.13c0.07995-4e-3 0.16832 4.9e-4 0.26872 0.0124 3e-3 3.3e-4 0.0058 1.8e-4 0.0088 5.2e-4 0.19072 0.0234 0.43458 0.0811 0.75086 0.17621 0.04838 0.0144 0.10097 0.031 0.15348 0.0476 0.15524 0.0491 0.31966 0.10279 0.51315 0.17053 0.0032 1e-3 0.0051 2e-3 0.0083 3e-3l-0.83509 0.28319c-2.877 0.97388-5.1603 2.5358-6.7045 4.5858-1.5322 2.034-2.63 4.4519-3.0799 6.7836-0.53044 2.7487-0.38939 5.1274 0.46147 7.7649 0.74675 2.3148 1.5148 3.5942 3.1269 5.2116 3.0949 3.105 6.6356 5.0492 10.163 5.5805 0.90136 0.1358 3.2514 0.24218 3.8407 0.12245-1.5593 0.48176-3.2122 0.81658-4.8798 0.97746-0.45867 0.0443-1.6779-5e-3 -2.5988-0.094-0.30698-0.0296-0.58096-0.0634-0.78238-0.0997-2.0647-0.37234-3.9827-1.2604-5.7537-2.6701-0.69568-0.5538-2.2131-2.1325-2.7187-2.8267-0.32047-0.43998-0.61698-0.8875-0.89039-1.3446-7.4e-5 -1.3e-4 7.7e-5 -3.9e-4 0-5.2e-4 -0.18223-0.3047-0.3548-0.61361-0.51676-0.92759-7.1e-5 -1.4e-4 7.2e-5 -3.8e-4 0-5.2e-4 -0.89115-1.7277-1.4793-3.6057-1.8076-5.7454-0.17185-1.1201-0.19305-3.3747-0.06305-4.7925 1.6e-5 -1.9e-4 -1.8e-5 -3.3e-4 0-5.1e-4 0.01858-0.20253 0.04036-0.38775 0.06511-0.55036 0.03986-0.26246 0.08316-0.51859 0.12971-0.76894 2.9e-5 -1.7e-4 -3.2e-5 -3.5e-4 0-5.2e-4 0.04656-0.25035 0.09651-0.49511 0.15038-0.73536 3.7e-5 -1.6e-4 -3.9e-5 -3.5e-4 0-5.1e-4 0.16168-0.72104 0.35778-1.401 0.59634-2.0671 5.5e-5 -1.5e-4 -5.3e-5 -3.7e-4 0-5.2e-4 0.23864-0.66619 0.52-1.3181 0.85214-1.9833 0.76293-1.528 1.4729-2.5191 2.6572-3.7088 1.7611-1.7692 3.5406-2.7343 5.9376-3.2215 0.43764-0.089 0.6818-0.16888 0.94723-0.18088z" fill="#dcdcdc" stroke-width=".056923"/>
     </g>
    </g>
   </g>
   <g transform="matrix(1.4872 0 0 1.4876 70.965 18.024)" shape-rendering="auto">
    <path d="m68.081 167.38c-3.5368-1.0623-7.1802-2.6178-10.793-4.3098-2.2842-1.0459-2.569-1.184-3.0859-1.5191 4.4557 0.31332 7.1252-0.0415 9.3898-1.9045l-0.76458 1.8216c4.5495 1.9137 8.9059 3.342 12.52 3.593 2.7388 0.19017 4.9731-0.24955 6.7531-1.4548 1.2593-0.85268 2.3631-2.1281 3.2391-4.0505-5.2841-1.6042-10.7-3.0471-13.858-3.9127l-0.49859 2.2549c-0.88121-2.1498-4.2169-4.0904-7.5322-5.6433 3.7161 0.48706 7.0173 0.12343 9.476-1.7667l-0.48664 1.5949c3.2776 0.87953 8.7698 2.291 14.056 3.8818 0.43049-2.3872-0.167-4.2707-1.4945-6.0315-1.4833-1.9674-4.0011-3.6855-7.0098-4.9414-3.4492-1.4393-7.5348-2.2329-11.206-2.4038l0.13687 1.9236c-1.5484-2.4904-3.9634-3.6814-8.2846-4.8121l0.1653-0.0154-0.07134-0.0156c5.6538-1.6827 13.88-0.93095 20.685 1.9088 3.4218 1.4279 6.4912 3.4107 8.5395 6.1275 1.9147 2.5396 2.8264 5.8079 2.0978 9.3386 15.861 4.8636 36.08 11.649 45.345 16.428l-1.6972 3.2867c-8.5223-4.3965-28.93-11.216-44.804-16.115-1.1439 2.6738-2.7407 4.6855-4.7219 6.027-2.6339 1.7834-5.8008 2.3109-9.0855 2.0828-1.6424-0.114-3.3344-0.40749-5.0583-0.83596-0.64645-0.16067-1.2974-0.34049-1.9521-0.53713z" color="#000000" color-rendering="auto" dominant-baseline="auto" fill="#800000" image-rendering="auto" solid-color="#000000" style="font-feature-settings:normal;font-variant-alternates:normal;font-variant-caps:normal;font-variant-ligatures:normal;font-variant-numeric:normal;font-variant-position:normal;isolation:auto;mix-blend-mode:normal;shape-padding:0;text-decoration-color:#000000;text-decoration-line:none;text-decoration-style:solid;text-indent:0;text-orientation:mixed;text-transform:none;white-space:normal"/>
    <path d="m68.081 167.38c-3.5368-1.0623-7.1802-2.6178-10.793-4.3098-2.2842-1.0459-2.569-1.184-3.0859-1.5191 4.4557 0.31332 7.1252-0.0415 9.3898-1.9045l-0.76458 1.8216c4.5495 1.9137 8.9059 3.342 12.52 3.593 2.7388 0.19017 4.9731-0.24955 6.7531-1.4548 1.2593-0.85268 2.3631-2.1281 3.2391-4.0505-5.2841-1.6042-10.7-3.0471-13.858-3.9127l-0.49859 2.2549c-0.88121-2.1498-4.2169-4.0904-7.5322-5.6433 3.7161 0.48706 7.0173 0.12343 9.476-1.7667l-0.48664 1.5949c3.2776 0.87953 8.7698 2.291 14.056 3.8818 0.43049-2.3872-0.167-4.2707-1.4945-6.0315-1.4833-1.9674-4.0011-3.6855-7.0098-4.9414-3.4492-1.4393-7.5348-2.2329-11.206-2.4038l0.13687 1.9236c-1.5484-2.4904-3.9634-3.6814-8.2846-4.8121l0.1653-0.0154-0.07134-0.0156c5.6538-1.6827 13.88-0.93095 20.685 1.9088 3.4218 1.4279 6.4912 3.4107 8.5395 6.1275 1.9147 2.5396 2.8264 5.8079 2.0978 9.3386 15.861 4.8636 36.08 11.649 45.345 16.428l-1.6972 3.2867c-8.5223-4.3965-28.93-11.216-44.804-16.115-1.1439 2.6738-2.7407 4.6855-4.7219 6.027-2.6339 1.7834-5.8008 2.3109-9.0855 2.0828-1.6424-0.114-3.3344-0.40749-5.0583-0.83596-0.64645-0.16067-1.2974-0.34049-1.9521-0.53713z" color="#000000" color-rendering="auto" dominant-baseline="auto" fill="none" image-rendering="auto" solid-color="#000000" stroke="#280b0b" stroke-width=".60508" style="font-feature-settings:normal;font-variant-alternates:normal;font-variant-caps:normal;font-variant-ligatures:normal;font-variant-numeric:normal;font-variant-position:normal;isolation:auto;mix-blend-mode:normal;shape-padding:0;text-decoration-color:#000000;text-decoration-line:none;text-decoration-style:solid;text-indent:0;text-orientation:mixed;text-transform:none;white-space:normal"/>
   </g>
   <g transform="matrix(1.288 -.74378 .74362 1.2883 92.46 8.0291)">
    <path transform="scale(.26458)" d="m-93.043 707.26v2e-3c-0.22022 0.0212-0.16493-0.0178-0.41211 0.19726-0.24718 0.21502-0.69274 0.72837-1.3672 1.627-4.3709 5.8235-7.1927 13.922-7.1927 22.339 0 2.0401 0.11891 4.1166 0.29492 5.7285 0.088 0.80595 0.3017 3.2068 0.40541 3.6968 0.0436 0.20598-4e-3 0.11154 0.0449 0.23437 0.40167 0.0333 1.0027 0.0612 1.8516 0.0801 1.7653 0.0336 5.3213 0.24189 9.1226 0.19649 5.9627-0.0707 12.938-5e-3 15.693 0.16211 6.955 0.41994 15.329 0.4196 18.891 0.0371 9.896-1.0656 15.479-4.2185 18.285-9.9199 1.0309-2.095 0.99104-4.045 0.99693-5.7788 0.0069-2.4746 0.25909-4.4081-2.1804-6.6536-2.2687-2.0882-5.7201-3.9099-10.867-5.6035-6.7745-2.229-17.101-3.9492-23.592-3.9492-2.108 0-6.1534-0.4429-10.867-1.1504-2.0735-0.31121-4.0694-0.58868-5.6094-0.77539-0.77-0.0934-2.2671-0.373-2.7515-0.41722-0.48444-0.0454-0.93186-0.0338-0.74609-0.0527z" fill="#ffd2a0"/>
    <path d="m-9.6089 190.98c0.082478 0.25505-0.26891 0.77298-0.7176 1.2178-0.6728 0.66702-1.5328 1.1434-2.8324 1.5684-1.5242 0.49842-3.7787 0.88736-6.1211 1.0563-1.5728 0.11324-2.524 0.15094-3.0902 0.12145-0.82194-0.0428-4.3068-0.5803-4.6017-0.69744 0.01376 0.28543 0.0329 0.5582 0.05839 0.79169 0.02328 0.21324 0.07982 0.84844 0.10726 0.97809 0.01154 0.0545-0.0011 0.0295 0.01188 0.062 0.10628 9e-3 0.2653 0.0162 0.48989 0.0212 0.46706 9e-3 1.4079 0.0636 2.4137 0.0516 1.5776-0.0187 3.4231-1e-3 4.1522 0.0429 1.8402 0.1111 4.0558 0.11101 4.9981 0.01 2.6183-0.28194 4.0956-1.1161 4.8379-2.6246 0.27277-0.5543 0.26221-1.0702 0.26377-1.529 9.525e-4 -0.33675 0.14467-0.8558 0.029788-1.0706z" fill="#cca880"/>
    <g transform="translate(0 -31.75)" fill="#1d1d1b" stroke-width=".67232">
     <path transform="scale(.26458)" d="m-94.668 821.88c-0.06943 5e-3 -0.17479 0.0274-0.37305 0.10352-0.45798 0.17575-0.6578 0.38268-0.91602 0.62109-0.25822 0.23849-0.522 0.51638-0.80469 0.8418-0.56538 0.6508-1.2019 1.4795-1.8594 2.3984-1.315 1.8379-2.6957 4.0161-3.5742 5.7949-2.9776 6.029-4.4427 12.466-4.4434 19.451-2.4e-4 2.0673 0.247 4.9129 0.58984 7.5137 0.34284 2.6007 0.68956 4.7847 1.2324 6.084l0.84961 2.0293 5.0117-0.3164c5.1099-0.32051 17.494-0.30947 30.695 0.0371 11.241 0.29442 15.312 7e-3 20.809-1.4766 7.6857-2.0758 13.573-7.4126 15.709-14.395 1.0175-3.3258 0.8519-7.2004-0.50976-10.172-2.3897-5.2148-8.5022-9.3451-17.021-12.062-7.0571-2.251-17.219-3.957-23.756-3.9648-2.113-2e-3 -6.0586-0.41648-12.039-1.3066-2.4485-0.36434-4.7256-0.68232-6.4297-0.89257-0.85203-0.10508-1.555-0.17939-2.082-0.22852-0.26355-0.0227-0.47968-0.0444-0.66406-0.0527-0.09218-4e-3 -0.17717-3e-3 -0.27344 0-0.04813 1e-3 -0.08096-0.0123-0.15039-8e-3zm1.6247 5.3824c-0.18576 0.0189 0.26165 9e-3 0.74609 0.0527 0.48444 0.0442 1.9815 0.32386 2.7515 0.41722 1.54 0.18671 3.5359 0.46418 5.6094 0.77539 4.7138 0.70749 8.7592 1.1504 10.867 1.1504 6.4904 0 16.817 1.7202 23.592 3.9492 5.1471 1.6936 8.5985 3.5153 10.867 5.6035 2.4395 2.2455 2.1873 4.1789 2.1804 6.6536-0.0059 1.7338 0.034 3.6838-0.99693 5.7788-2.8057 5.7014-8.3891 8.8543-18.285 9.9199-3.5618 0.38249-11.936 0.38214-18.891-0.0371-2.7556-0.16743-9.7307-0.23279-15.693-0.16211-3.8013 0.0453-7.3574-0.16139-9.1226-0.19649-0.84887-0.0189-1.4499-0.0468-1.8516-0.0801-0.0494-0.12283-1e-3 -0.0303-0.0449-0.23632-0.10371-0.49002-0.31738-2.8908-0.40541-3.6968-0.17601-1.6119-0.29492-3.6884-0.29492-5.7285 0-8.4167 2.8218-16.516 7.1927-22.339 0.67445-0.89858 1.12-1.41 1.3672-1.625 0.24718-0.21505 0.1919-0.17805 0.41211-0.19922z"/>
     <path transform="scale(.26458)" d="m-78.088 838.65c-0.43755 5e-3 -0.81872 0.0183-1.1426 0.041-0.32387 0.0227-0.58156 0.0458-0.87109 0.11914-0.14476 0.0378-0.29474 0.0615-0.56055 0.24219-0.13293 0.0903-0.31222 0.23901-0.45703 0.52539-0.14483 0.28649-0.17517 0.7231-0.07422 1.0254 0.25187 0.75545 0.57797 0.82212 0.85547 0.99023 0.27749 0.16819 0.57213 0.29037 0.90234 0.38282 0.84853 0.23735 1.8792 0.27281 3.0254 0.28906 1.1462 0.0151 2.1446 0.0262 3.0117-0.20703 0.23807-0.0639 0.44554-0.13365 0.6582-0.22852 0.21267-0.0952 0.46538-0.14807 0.77344-0.63476 0.15402-0.24341 0.2703-0.68239 0.17774-1.0645-0.09252-0.38211-0.31172-0.61683-0.47266-0.75195-0.3219-0.27024-0.52817-0.30753-0.73828-0.36914-0.84044-0.24567-1.9171-0.30797-3.6016-0.34766-0.55391-0.0132-1.0488-0.0169-1.4863-0.0117z"/>
     <path transform="scale(.26458)" d="m-89.309 838.79c-0.15994 0.0265-0.34421 0.0876-0.55859 0.19531v-2e-3c-0.42877 0.21543-0.74564 0.79705-0.76758 1.1738-0.02192 0.37682 0.07088 0.60235 0.1543 0.7832 0.17873 0.38759 0.544 0.54339 0.82031 0.7832v0.31641l0.70898 0.36133c1.076 0.54913 2.3228 0.67993 3.4023 0.26562 0.38234-0.14664 0.75066-0.29849 1.0859-0.78125 0.16762-0.24151 0.3028-0.61277 0.27344-0.99609-0.02948-0.38336-0.21327-0.70913-0.40039-0.91602-0.37421-0.41378-0.73647-0.51822-1.0996-0.61328-0.36314-0.0952-0.74539-0.13987-1.1738-0.14062-0.30176-6.1e-4 -0.66553-0.0288-0.95898-0.0723-0.29344-0.0423-0.57406-0.14087-0.46484-0.0898-0.27221-0.12643-0.54166-0.34696-1.0215-0.26758z"/>
     <path transform="scale(.26458)" d="m-81.271 846.14c-0.29634 7e-3 -0.62485 0.0284-1 0.0586-1.1338 0.0911-1.7447 0.11163-2.4355 0.37695-0.34541 0.13267-0.92835 0.50086-1.0703 1.166-0.08644 0.40503-0.01754 0.69578 0.08008 0.92188v0.0527l0.19336 0.30859v2e-3 8e-3c0.26664 0.43098 0.59362 0.56667 0.83398 0.65625 0.24038 0.0896 0.44564 0.1187 0.65625 0.14062 0.42122 0.0439 0.85712 0.0272 1.3359-0.0371 1.1493-0.15497 1.8546-0.26154 2.4375-0.43555 0.29148-0.0869 0.58156-0.1789 0.90039-0.45117 0.31884-0.27251 0.56836-0.83373 0.56836-1.2246 0-0.32391-0.14845-0.69744-0.33984-0.92383s-0.39326-0.33361-0.55469-0.40625c-0.32285-0.14551-0.54881-0.16911-0.79688-0.19141-0.24807-0.0223-0.51226-0.0289-0.80859-0.0215z"/>
    </g>
   </g>
   <g transform="matrix(1.4366 -.38501 .38492 1.4369 156.07 -4.3619)">
    <path transform="scale(.26458)" d="m108.37 701.03c-0.0712 0.0144-0.40323 0.0499-0.74414 0.11718-0.47647 0.0937-1.1284 0.23353-1.8965 0.40625-1.5362 0.34526-3.5486 0.82523-5.6484 1.3516-4.2567 1.0669-8.9976 2.0697-10.961 2.2734-7.0179 0.72775-16.937 3.2003-23.977 5.9863-9.2071 3.6438-16.443 10.347-17.26 14.24-0.30194 1.4395-0.30342 1.4373 0.17578 2.9609 0.5356 1.7028 3.0156 5.6936 4.3838 6.8214 4.6514 3.8341 13.966 7.3174 24.93 6.3164 0.01122 0 0.04725-7e-3 0.05859-8e-3 1.9827-0.18266 6.6263-0.75227 10.283-1.2617 13.602-1.8948 23.368-3.338 28.623-3.338 0.89165 0 2.2212 0.17189 2.5639 0.11819 0.34261-0.0552 0.27635-0.0623 0.27344-0.0586-6e-3 7e-3 0.65322-2.5703 0.73188-4.963 0.33053-10.052-1.414-19.626-7.6788-26.174-0.73997-0.77345-3.2164-4.3622-3.5399-4.5969-0.20376-0.14664-0.27754-0.18006-0.31836-0.1914z" fill="#ffd2a0"/>
    <path d="m12.781 191.59c-0.04983 0.11463-0.08912 0.22836-0.11265 0.34054-0.07989 0.38088-0.08028 0.38028 0.04651 0.78342 0.14171 0.45052 0.79788 1.5064 1.1599 1.8048 1.2307 1.0144 3.6952 1.9361 6.5961 1.6712 3e-3 0 0.0125-2e-3 0.0155-2e-3 0.52458-0.0483 1.7532-0.19904 2.7208-0.33383 3.599-0.50133 6.1827-0.88319 7.5732-0.88319 0.23592 0 0.58771 0.0458 0.67836 0.0312 0.09065-0.0146 0.07312-0.0165 0.07235-0.0155-0.0016 2e-3 0.17283-0.68006 0.19364-1.3131 0.0062-0.18972 0.0054-0.37949 0.0011-0.56896l-0.20309 0.047c-0.13426 0.0309-1.0928 0.17209-1.9077 0.37335-2.0398 0.50377-2.7214 0.62031-4.191 0.71521v-5.3e-4c-1.1676 0.0754-4.1081 0.0937-4.9108 0.0305-3.8564-0.30372-5.7099-0.82872-6.9205-1.9611-0.3068-0.28699-0.84177-0.49108-0.81155-0.71905z" fill="#cca880"/>
    <g transform="translate(0 -31.75)" fill="#1d1d1b" stroke-width=".67232">
     <path transform="scale(.26458)" d="m108.68 816.24-9.5879 2.3477c-2.4788 0.60684-5.0027 1.1852-7.0645 1.623-2.0618 0.43786-3.753 0.74224-4.209 0.78321-5.9985 0.53937-15.568 2.7994-22.404 5.2695-9.9765 3.605-16.679 8.0928-19.783 13.51-3.1046 5.417-2.2362 11.69 2.4297 17.754 3.865 5.0228 10.378 8.0483 18.24 8.7031 6.486 0.5402 12.3 0.16191 24.375-1.5508 11.982-1.6996 17.788-2.2519 28.191-2.6797 0.88217-0.0378 1.6925-0.0677 2.2891-0.0957 0.29828-0.0151 0.54607-0.0277 0.72266-0.0391 0.0883-4e-3 0.15785-0.01 0.21484-0.0137 0.0284-2e-3 0.0512-4e-3 0.0801-8e-3 0.0144-1e-3 0.0268 3e-3 0.0527 0 0.0261-3e-3 0.21949-0.0446 0.2207-0.0449l8e-3 -8e-3h8e-3c1e-3 -3.4e-4 0.40455-0.20356 0.40625-0.20508 2e-3 -1e-3 0.10689-0.0878 0.13868-0.11914 0.0636-0.0631 0.0937-0.10068 0.11914-0.13281 0.0509-0.0643 0.0816-0.10384 0.11133-0.14844 0.0593-0.0888 0.11156-0.17939 0.17578-0.28711 0.12846-0.21543 0.28149-0.49114 0.44336-0.79101 0.33403-0.61897 0.5355-1.3984 0.62109-2.6426 0.0856-1.2441 0.0978-3.0863 0.10156-6.2148 8e-3 -7.8728-0.30522-10.151-2.1699-15.863-1.1616-3.5581-3.1336-7.3932-5.3438-10.703-2.2102-3.31-4.5936-6.0853-6.9023-7.5234zm-0.30722 4.7867c0.0408 0.0101 0.1146 0.0446 0.31836 0.1914 0.32356 0.23471 2.7999 3.8234 3.5399 4.5969 6.2648 6.5484 8.0094 16.122 7.6788 26.174-0.0787 2.3926-0.7377 4.9704-0.73188 4.963 3e-3 -4e-3 0.0692 3e-3 -0.27344 0.0586-0.34262 0.0537-1.6722-0.11819-2.5639-0.11819-5.2552 0-15.021 1.4433-28.623 3.338-3.6569 0.50945-8.3005 1.0791-10.283 1.2617-0.01134 1e-3 -0.04737 8e-3 -0.05859 8e-3 -10.964 1.001-20.279-2.4823-24.93-6.3164-1.3682-1.1278-3.8482-5.1186-4.3838-6.8214-0.4792-1.5237-0.47772-1.5214-0.17578-2.9609 0.8166-3.8932 8.0529-10.596 17.26-14.24 7.0396-2.786 16.959-5.2586 23.977-5.9863 1.9633-0.20371 6.7042-1.2065 10.961-2.2734 2.0998-0.52634 4.1122-1.0063 5.6484-1.3516 0.7681-0.17272 1.42-0.31244 1.8965-0.40625 0.34093-0.0673 0.67292-0.1026 0.74414-0.11718z"/>
     <path transform="scale(.26458)" d="m105.05 834.4c-0.50406 0.0151-0.65353 0.16294-0.81836 0.25781-0.16482 0.0949-0.30545 0.19376-0.47265 0.31055 0.1319-0.0922-0.84783 0.26562-1.3438 0.26562-0.55676 0-0.97334-2e-3 -1.4844 0.17774-0.25553 0.0896-0.56207 0.24666-0.81055 0.55273-0.24846 0.30614-0.36132 0.72898-0.36132 1.041 0 0.31218 0.11286 0.73502 0.36132 1.041 0.24847 0.30614 0.55503 0.46508 0.81055 0.55469 0.51105 0.17915 0.9276 0.17578 1.4844 0.17578 0.94034 0 1.8151-0.19885 2.5547-0.58984 0.73955-0.39115 1.5352-1.0566 1.5352-2.1777 0-0.14967 0.0263-0.30124-0.0957-0.65625-0.0611-0.17764-0.18618-0.43609-0.45704-0.65039-0.27087-0.2143-0.65031-0.30916-0.90234-0.30273z"/>
     <path transform="scale(.26458)" d="m94.814 835.32c-0.5485-0.0174-1.0415 0.11766-1.6914 0.30078-0.59849 0.16743-2.2147 0.37695-3.1738 0.37695-0.75975 0-1.3043 0.0106-1.8164 0.11719-0.25602 0.0533-0.5242 0.12277-0.8418 0.34765-0.31759 0.22489-0.65625 0.76697-0.65625 1.2461 0 0.40675 0.2065 0.80847 0.41992 1.0332 0.21343 0.22488 0.41747 0.33518 0.59766 0.41406 0.36038 0.15799 0.66963 0.20295 1.0117 0.24414 0.68418 0.082 1.4753 0.078 2.3184 0.0156 0.84309-0.0627 1.7275-0.18716 2.5312-0.36328 0.80371-0.17613 1.5048-0.36117 2.1484-0.77344 0.32614-0.20901 0.72125-0.30388 0.91602-1.1523 0.0974-0.42414-0.11619-1.076-0.42188-1.3574-0.30565-0.28157-0.56454-0.33311-0.76758-0.37695-0.20304-0.0438-0.39138-0.0665-0.57422-0.0723z"/>
     <path transform="scale(.26458)" d="m98.488 842.92c-0.91292 0-1.4933 3e-3 -2.0586 0.125-0.28263 0.0605-0.60052 0.14557-0.9375 0.44336-0.33698 0.29782-0.53906 0.84614-0.53906 1.2031 0 0.35717 0.20209 0.91307 0.53906 1.2109 0.33698 0.29782 0.65487 0.38281 0.9375 0.44336 0.56526 0.12094 1.1457 0.125 2.0586 0.125s1.4953-3e-3 2.0605-0.125c0.28263-0.0605 0.60052-0.14561 0.9375-0.44336 0.33698-0.29783 0.53906-0.85393 0.53906-1.2109 0-0.35679-0.20208-0.90526-0.53906-1.2031-0.33698-0.29783-0.65487-0.38282-0.9375-0.44336-0.56526-0.12095-1.1476-0.125-2.0605-0.125z"/>
    </g>
   </g>
   <g transform="matrix(1.4872 0 0 1.4876 236.23 24.321)">
    <path d="m-10.005 98.678c-4.4091-3.9206-4.862-12.355-3.8966-16.847 1.0265-4.7764-7.7515 9.3838-6.9101 18.476 2.9257 2.7163 9.1583 2.229 10.807-1.6283z" fill="#c83737" style="paint-order:normal"/>
    <path d="m-14.182 83.047c0.88616-4.2152-7.4709 8.1677-6.6294 17.259 0.69256 0.64298 2.3642 1.0403 3.3226 1.3221 1.2681 0.0669 4.3696 0.31431 5.9466-1.5411-4.0007 0.69045-5.4825 0.27755-7.0565-0.81398-0.12876-6.742 2.6522-13.962 4.4167-16.226z" fill="#963333" style="paint-order:normal"/>
    <path d="m-10.005 98.678c-4.4091-3.9206-4.862-12.355-3.8966-16.847 1.0265-4.7764-7.7515 9.3838-6.9101 18.476 2.9257 2.7163 9.1583 2.229 10.807-1.6283z" fill="none" stroke="#1d1d1b" stroke-linecap="round" stroke-linejoin="round" stroke-width=".91502" style="paint-order:normal"/>
    <g transform="matrix(-1 0 0 1 2.9923 0)">
     <path d="m-10.005 98.678c-4.4091-3.9206-4.862-12.355-3.8966-16.847 1.0265-4.7764-7.7515 9.3838-6.9101 18.476 2.9257 2.7163 9.1583 2.229 10.807-1.6283z" fill="#c83737" style="paint-order:normal"/>
     <path d="m-14.182 83.047c0.88616-4.2152-7.4709 8.1677-6.6294 17.259 0.69256 0.64298 2.3642 1.0403 3.3226 1.3221-1.046-9.9292 1.1444-15.806 3.3068-18.581z" fill="#963333" style="paint-order:normal"/>
     <path d="m-10.005 98.678c-4.4091-3.9206-4.862-12.355-3.8966-16.847 1.0265-4.7764-7.7515 9.3838-6.9101 18.476 2.9257 2.7163 9.1583 2.229 10.807-1.6283z" fill="none" stroke="#1d1d1b" stroke-linecap="round" stroke-linejoin="round" stroke-width=".91502" style="paint-order:normal"/>
    </g>
   </g>
  </g>
  <path d="m314.03 209c-2.196-1.7505-3.9876-1.9483-5.3301-2.023-0.57255-0.0318-0.0642-0.47472-0.0541-4.6768-1.3509 1.9575-1.9862 4.5396-2.8263 4.3696-1.3938-0.28211-3.7646-0.98916-6.1977-2.1738 6.9018-2.4416 9.5115-7.8784 7.682-16.383 6.1669 6.6711 4.0691 14.062 6.7262 20.887z" fill="#800000" stroke="#000" stroke-linecap="square" stroke-width="1.365"/>
 </g>
</svg>
